# xmcd
#
# Track frame offsets:
#	150
#	19925
#	32860
#	50320
#	67157
#	80760
#	95187
#	109460
#	124404
#	144875
#	165385
#	182317
#
# Disc length: 2656 seconds
#
# Revision: 0
# Processed by: cddbd v1.5.1PL0 Copyright (c) Steve Scherf et al.
# Submitted via: dBpowerAMP V4.0
#
DISCID=a80a5e0c
DTITLE=Eddie Floyd - Back to the roots
DYEAR=1900
DGENRE=
TTITLE0=On a saturday night
TTITLE1=Sweet soul music
TTITLE2=99 1/2 (just won't do)
TTITLE3=Close to you
TTITLE4=Waste of time
TTITLE5=You're so fine
TTITLE6=Heard it through the walls
TTITLE7=Funky Broadway
TTITLE8=Trouble in your home
TTITLE9=Consider me
TTITLE10=Breakdown
TTITLE11=Carolina girls
EXTD=Dutch release
EXTT0=
EXTT1=
EXTT2=
EXTT3=
EXTT4=
EXTT5=
EXTT6=
EXTT7=
EXTT8=
EXTT9=
EXTT10=
EXTT11=
PLAYORDER=
